<?xml version="1.0" encoding="UTF-8"?>
<!DOCTYPE svg PUBLIC "-//W3C//DTD SVG 1.1//EN" "http://www.w3.org/Graphics/SVG/1.1/DTD/svg11.dtd">
<!-- Creator: CorelDRAW 2017 -->
<svg xmlns="http://www.w3.org/2000/svg" xml:space="preserve" width="1024px" height="512px" version="1.1" style="shape-rendering:geometricPrecision; text-rendering:geometricPrecision; image-rendering:optimizeQuality; fill-rule:evenodd; clip-rule:evenodd"
viewBox="0 0 1024 512"
 xmlns:xlink="http://www.w3.org/1999/xlink">
 <defs>
  <style type="text/css">
   <![CDATA[
    .str1 {stroke:#727271;stroke-width:1}
    .str0 {stroke:#EF7F1A;stroke-width:1}
    .fil1 {fill:#898989}
    .fil0 {fill:#EF7F1A}
    .fil3 {fill:#FFED00;fill-rule:nonzero}
    .fil2 {fill:#FFED00;fill-rule:nonzero}
    .fil4 {fill:#FFED00;fill-rule:nonzero}
    .fil5 {fill:#FFEC00;fill-rule:nonzero}
    .fil6 {fill:#FEEC00;fill-rule:nonzero}
    .fil7 {fill:#FEEC00;fill-rule:nonzero}
    .fil8 {fill:#FDEB00;fill-rule:nonzero}
    .fil9 {fill:#FDEB00;fill-rule:nonzero}
    .fil10 {fill:#FCEB00;fill-rule:nonzero}
    .fil11 {fill:#FCEA00;fill-rule:nonzero}
    .fil12 {fill:#FCEA00;fill-rule:nonzero}
    .fil13 {fill:#FBEA00;fill-rule:nonzero}
    .fil14 {fill:#FBE900;fill-rule:nonzero}
    .fil15 {fill:#FAE900;fill-rule:nonzero}
    .fil16 {fill:#FAE900;fill-rule:nonzero}
    .fil17 {fill:#F9E800;fill-rule:nonzero}
    .fil18 {fill:#F9E800;fill-rule:nonzero}
    .fil19 {fill:#F9E800;fill-rule:nonzero}
    .fil20 {fill:#F8E700;fill-rule:nonzero}
    .fil21 {fill:#F7E700;fill-rule:nonzero}
    .fil22 {fill:#F7E700;fill-rule:nonzero}
    .fil23 {fill:#F6E600;fill-rule:nonzero}
    .fil24 {fill:#F5E600;fill-rule:nonzero}
    .fil25 {fill:#F4E600;fill-rule:nonzero}
    .fil26 {fill:#F4E500;fill-rule:nonzero}
    .fil27 {fill:#F3E500;fill-rule:nonzero}
    .fil28 {fill:#F2E500;fill-rule:nonzero}
    .fil29 {fill:#F1E400;fill-rule:nonzero}
    .fil30 {fill:#F0E400;fill-rule:nonzero}
    .fil31 {fill:#F0E400;fill-rule:nonzero}
    .fil32 {fill:#EFE300;fill-rule:nonzero}
    .fil33 {fill:#EEE300;fill-rule:nonzero}
    .fil34 {fill:#EDE300;fill-rule:nonzero}
    .fil35 {fill:#ECE200;fill-rule:nonzero}
    .fil36 {fill:#ECE200;fill-rule:nonzero}
    .fil37 {fill:#EBE200;fill-rule:nonzero}
    .fil38 {fill:#EAE100;fill-rule:nonzero}
    .fil39 {fill:#E9E100;fill-rule:nonzero}
    .fil40 {fill:#E9E100;fill-rule:nonzero}
    .fil41 {fill:#E8E000;fill-rule:nonzero}
    .fil42 {fill:#E7E000;fill-rule:nonzero}
    .fil43 {fill:#E6E000;fill-rule:nonzero}
    .fil44 {fill:#E5DF00;fill-rule:nonzero}
    .fil45 {fill:#E5DF00;fill-rule:nonzero}
    .fil46 {fill:#E4DF00;fill-rule:nonzero}
    .fil47 {fill:#E3DE00;fill-rule:nonzero}
    .fil48 {fill:#E2DE00;fill-rule:nonzero}
    .fil49 {fill:#E1DE00;fill-rule:nonzero}
    .fil50 {fill:#E1DD00;fill-rule:nonzero}
    .fil51 {fill:#E0DD00;fill-rule:nonzero}
    .fil52 {fill:#DFDD00;fill-rule:nonzero}
    .fil53 {fill:#DEDC00;fill-rule:nonzero}
    .fil54 {fill:#DEDC00;fill-rule:nonzero}
    .fil55 {fill:#DDDC00;fill-rule:nonzero}
    .fil56 {fill:#DCDB00;fill-rule:nonzero}
    .fil57 {fill:#DBDB00;fill-rule:nonzero}
    .fil58 {fill:#DADB00;fill-rule:nonzero}
    .fil59 {fill:#D9DA00;fill-rule:nonzero}
    .fil60 {fill:#D8DA00;fill-rule:nonzero}
    .fil61 {fill:#D8DA00;fill-rule:nonzero}
    .fil62 {fill:#D7D900;fill-rule:nonzero}
    .fil63 {fill:#D6D900;fill-rule:nonzero}
    .fil64 {fill:#D5D900;fill-rule:nonzero}
    .fil65 {fill:#D4D800;fill-rule:nonzero}
    .fil66 {fill:#D3D800;fill-rule:nonzero}
    .fil67 {fill:#D3D800;fill-rule:nonzero}
    .fil68 {fill:#D2D700;fill-rule:nonzero}
    .fil69 {fill:#D1D700;fill-rule:nonzero}
    .fil70 {fill:#D0D700;fill-rule:nonzero}
    .fil71 {fill:#CFD600;fill-rule:nonzero}
    .fil72 {fill:#CED601;fill-rule:nonzero}
    .fil73 {fill:#CDD602;fill-rule:nonzero}
    .fil74 {fill:#CDD503;fill-rule:nonzero}
    .fil75 {fill:#CCD504;fill-rule:nonzero}
    .fil76 {fill:#CBD506;fill-rule:nonzero}
    .fil77 {fill:#CAD407;fill-rule:nonzero}
    .fil78 {fill:#C9D408;fill-rule:nonzero}
    .fil79 {fill:#C8D409;fill-rule:nonzero}
    .fil80 {fill:#C7D30A;fill-rule:nonzero}
    .fil81 {fill:#C6D30C;fill-rule:nonzero}
    .fil82 {fill:#C5D30D;fill-rule:nonzero}
    .fil83 {fill:#C4D20E;fill-rule:nonzero}
    .fil84 {fill:#C4D20F;fill-rule:nonzero}
    .fil85 {fill:#C3D210;fill-rule:nonzero}
    .fil86 {fill:#C2D112;fill-rule:nonzero}
    .fil87 {fill:#C1D113;fill-rule:nonzero}
    .fil88 {fill:#C0D114;fill-rule:nonzero}
    .fil89 {fill:#BFD015;fill-rule:nonzero}
    .fil90 {fill:#BED015;fill-rule:nonzero}
    .fil91 {fill:#BDCF16;fill-rule:nonzero}
    .fil92 {fill:#BCCF17;fill-rule:nonzero}
    .fil93 {fill:#BBCF17;fill-rule:nonzero}
    .fil94 {fill:#BACE18;fill-rule:nonzero}
    .fil95 {fill:#B9CE19;fill-rule:nonzero}
    .fil96 {fill:#B8CE19;fill-rule:nonzero}
    .fil97 {fill:#B7CD1A;fill-rule:nonzero}
    .fil98 {fill:#B7CD1B;fill-rule:nonzero}
    .fil99 {fill:#B6CD1B;fill-rule:nonzero}
    .fil100 {fill:#B5CC1C;fill-rule:nonzero}
    .fil101 {fill:#B4CC1D;fill-rule:nonzero}
    .fil102 {fill:#B3CC1D;fill-rule:nonzero}
    .fil103 {fill:#B2CB1E;fill-rule:nonzero}
    .fil104 {fill:#B1CB1F;fill-rule:nonzero}
    .fil105 {fill:#B0CB1F;fill-rule:nonzero}
    .fil106 {fill:#AFCA20;fill-rule:nonzero}
    .fil107 {fill:#AECA20;fill-rule:nonzero}
    .fil108 {fill:#ADC921;fill-rule:nonzero}
    .fil109 {fill:#ACC921;fill-rule:nonzero}
    .fil110 {fill:#ABC922;fill-rule:nonzero}
    .fil111 {fill:#AAC822;fill-rule:nonzero}
    .fil112 {fill:#A9C823;fill-rule:nonzero}
    .fil113 {fill:#A8C823;fill-rule:nonzero}
    .fil114 {fill:#A7C724;fill-rule:nonzero}
    .fil115 {fill:#A6C724;fill-rule:nonzero}
    .fil116 {fill:#A5C725;fill-rule:nonzero}
    .fil117 {fill:#A4C625;fill-rule:nonzero}
    .fil118 {fill:#A3C626;fill-rule:nonzero}
    .fil119 {fill:#A2C626;fill-rule:nonzero}
    .fil120 {fill:#A1C527;fill-rule:nonzero}
    .fil121 {fill:#A0C527;fill-rule:nonzero}
    .fil122 {fill:#9FC428;fill-rule:nonzero}
    .fil123 {fill:#9EC428;fill-rule:nonzero}
    .fil124 {fill:#9CC428;fill-rule:nonzero}
    .fil125 {fill:#9BC329;fill-rule:nonzero}
    .fil126 {fill:#9AC329;fill-rule:nonzero}
    .fil127 {fill:#99C329;fill-rule:nonzero}
    .fil128 {fill:#98C22A;fill-rule:nonzero}
    .fil129 {fill:#97C22A;fill-rule:nonzero}
    .fil130 {fill:#96C22B;fill-rule:nonzero}
    .fil131 {fill:#95C12B;fill-rule:nonzero}
    .fil132 {fill:#94C12B;fill-rule:nonzero}
    .fil133 {fill:#93C02C;fill-rule:nonzero}
    .fil134 {fill:#92C02C;fill-rule:nonzero}
    .fil135 {fill:#91C02C;fill-rule:nonzero}
    .fil136 {fill:#90BF2D;fill-rule:nonzero}
    .fil137 {fill:#8FBF2D;fill-rule:nonzero}
    .fil138 {fill:#8DBF2D;fill-rule:nonzero}
    .fil139 {fill:#8CBE2E;fill-rule:nonzero}
    .fil140 {fill:#8BBE2E;fill-rule:nonzero}
    .fil141 {fill:#8ABE2E;fill-rule:nonzero}
    .fil142 {fill:#89BD2F;fill-rule:nonzero}
    .fil143 {fill:#88BD2F;fill-rule:nonzero}
    .fil144 {fill:#86BD2F;fill-rule:nonzero}
    .fil145 {fill:#85BC30;fill-rule:nonzero}
    .fil146 {fill:#84BC30;fill-rule:nonzero}
    .fil147 {fill:#83BB30;fill-rule:nonzero}
    .fil148 {fill:#82BB31;fill-rule:nonzero}
    .fil149 {fill:#81BB31;fill-rule:nonzero}
    .fil150 {fill:#7FBA31;fill-rule:nonzero}
    .fil151 {fill:#7EBA32;fill-rule:nonzero}
    .fil152 {fill:#7DBA32;fill-rule:nonzero}
    .fil153 {fill:#7CB932;fill-rule:nonzero}
    .fil154 {fill:#7BB933;fill-rule:nonzero}
    .fil155 {fill:#7AB933;fill-rule:nonzero}
    .fil156 {fill:#78B833;fill-rule:nonzero}
    .fil157 {fill:#77B833;fill-rule:nonzero}
    .fil158 {fill:#76B834;fill-rule:nonzero}
    .fil159 {fill:#74B734;fill-rule:nonzero}
    .fil160 {fill:#73B734;fill-rule:nonzero}
    .fil161 {fill:#72B635;fill-rule:nonzero}
    .fil162 {fill:#70B635;fill-rule:nonzero}
    .fil163 {fill:#6FB635;fill-rule:nonzero}
    .fil164 {fill:#6EB535;fill-rule:nonzero}
    .fil165 {fill:#6CB536;fill-rule:nonzero}
    .fil166 {fill:#6BB536;fill-rule:nonzero}
    .fil167 {fill:#6AB436;fill-rule:nonzero}
    .fil168 {fill:#68B436;fill-rule:nonzero}
    .fil169 {fill:#67B437;fill-rule:nonzero}
    .fil170 {fill:#66B337;fill-rule:nonzero}
    .fil171 {fill:#65B337;fill-rule:nonzero}
    .fil172 {fill:#63B338;fill-rule:nonzero}
    .fil173 {fill:#62B238;fill-rule:nonzero}
    .fil174 {fill:#60B238;fill-rule:nonzero}
    .fil175 {fill:#5FB138;fill-rule:nonzero}
    .fil176 {fill:#22F029;fill-rule:nonzero}
    .fil177 {fill:url(#id1);fill-rule:nonzero}
   ]]>
  </style>
    <clipPath id="id0" style="clip-rule:nonzero">
     <path d="M136 162c0,10 -2,18 -5,25 -3,6 -7,9 -11,9 -4,0 -8,-3 -11,-9 -3,-7 -5,-15 -5,-25 0,-3 0,-6 0,-8 -9,0 -16,10 -23,31 -7,19 -10,39 -10,59 0,38 11,57 32,57l30 0c-1,15 -6,22 -15,22l-22 0c-14,0 -25,-5 -34,-14 -12,-13 -18,-33 -18,-62 0,-16 2,-32 6,-48 6,-22 14,-39 24,-52 10,-12 21,-19 33,-19l12 0c4,0 7,3 10,10 3,7 5,15 5,24zm99 67c-2,15 -6,22 -14,22l-38 0c1,2 2,6 3,11 1,5 1,10 1,14 -1,15 -4,28 -9,36 -5,8 -12,13 -20,13 -9,0 -17,-4 -22,-13 -5,-8 -7,-18 -7,-31 0,-3 0,-5 0,-8 1,-14 4,-25 9,-33 5,-8 12,-13 21,-13l74 0zm-65 22l-14 0 -5 36c0,2 0,4 0,5 0,8 3,12 10,12 1,0 1,0 2,0l8 -53zm152 50c-1,15 -6,22 -14,22l-24 0c-2,0 -4,-2 -5,-5 -2,-4 -2,-8 -2,-12 0,-1 0,-3 0,-4 1,-7 2,-17 4,-30l-20 39c-5,10 -9,15 -13,15 -5,0 -8,-5 -8,-14 0,-3 0,-6 1,-10l5 -30 -24 46c-2,4 -5,6 -8,6l-12 0 13 -94 21 0 -6 47 19 -37c5,-9 10,-14 16,-14 5,0 7,4 7,13 0,2 0,5 -1,8l-4 27 18 -35c4,-9 9,-13 14,-13 5,0 8,5 8,15 0,3 0,7 -1,11l-8 50 25 0zm78 0c0,7 -2,13 -5,17 -3,4 -6,5 -9,5l-33 0c-5,0 -7,-6 -8,-17 2,-2 4,-4 6,-5 3,-3 5,-6 6,-10 2,-5 3,-12 3,-20 0,-5 -1,-10 -4,-13 -2,-4 -5,-6 -8,-6l-17 125 -22 0 24 -181 22 0 -5 33c10,0 16,1 19,3 8,5 12,15 11,32 0,7 -2,15 -4,22 -3,8 -6,13 -10,15l32 0zm263 0c-1,7 -3,13 -6,17 -3,4 -6,5 -9,5l-33 0c-19,0 -29,-14 -29,-41 0,-17 3,-31 10,-41 6,-9 13,-13 20,-13l9 0c5,0 10,2 13,5 5,5 8,12 8,22 0,10 -2,18 -6,25l-20 0 6 -30 -13 0 -5 33c0,2 0,4 0,5 0,8 3,11 8,11l47 0zm70 0c0,6 -2,12 -5,16 -3,4 -6,6 -9,6l-23 0c-6,0 -9,-6 -9,-17 0,-3 0,-6 1,-10l6 -45 -12 0 -9 40c-1,7 -3,10 -6,10l-5 0 8 -50c-2,-1 -4,-4 -6,-9 -2,-4 -2,-10 -2,-15 0,-11 2,-19 6,-25 4,-5 8,-7 13,-7l10 0 -5 34 32 0 -10 72 25 0zm90 -72c-1,8 -3,14 -7,18 -3,3 -5,4 -8,4l-25 0 -25 72 -24 0 -2 -94 22 0 0 68 23 -68 48 0zm12 -57c0,9 -2,17 -5,24 -3,6 -7,10 -11,10 -4,0 -8,-3 -11,-10 -3,-6 -5,-14 -5,-24 0,-9 2,-17 5,-23 3,-6 7,-10 11,-10 4,0 8,3 11,10 3,6 5,14 5,23zm6 129c-1,8 -3,14 -6,18 -2,3 -5,4 -8,4l-24 0c-6,0 -9,-6 -9,-17 0,-3 0,-6 1,-10l9 -67 22 0 -10 72 25 0zm75 0c-1,7 -3,13 -6,17 -3,4 -6,5 -9,5l-36 0c-7,0 -13,-3 -17,-8 -6,-7 -9,-17 -9,-30 0,-2 0,-3 0,-5 1,-17 5,-29 11,-39 6,-8 13,-12 21,-12l15 0c3,0 6,3 9,7 2,5 4,11 4,18 0,7 -1,13 -4,19 -2,5 -5,8 -9,8 -3,0 -6,-3 -9,-8 -2,-5 -4,-11 -4,-19 0,0 0,-1 0,-3l-7 0 -5 31c0,3 -1,5 -1,7 0,8 3,12 8,12l46 0zm75 0c-1,7 -3,13 -6,17 -3,4 -6,5 -9,5l-33 0c-19,0 -29,-14 -29,-41 0,-17 3,-31 10,-41 6,-9 13,-13 20,-13l9 0c5,0 10,2 13,5 5,5 8,12 8,22 0,10 -2,18 -6,25l-20 0 6 -30 -13 0 -5 33c0,2 0,4 0,5 0,8 3,11 8,11l47 0z"/>
    </clipPath>
  <radialGradient id="id1" gradientUnits="userSpaceOnUse" gradientTransform="matrix(0.872604 -0 -0 1 62 0)" cx="489" cy="256" r="289" fx="489" fy="256">
   <stop offset="0" style="stop-opacity:1; stop-color:white"/>
   <stop offset="0.321569" style="stop-opacity:1; stop-color:#F7BF8C"/>
   <stop offset="1" style="stop-opacity:1; stop-color:#EF7F1A"/>
  </radialGradient>
 </defs>
 <g id="Слой_x0020_1">
  <metadata id="CorelCorpID_0Corel-Layer"/>
  <path class="fil0 str0" d="M455 186l-125 -124c-8,-8 -22,-26 -33,-25 -12,0 -15,4 -23,13 -5,5 -11,12 -10,21 0,14 15,22 25,32l85 78c2,2 3,2 5,4 3,3 6,6 10,9l10 9c2,2 3,3 5,4l15 14 36 -35zm-159 -129c7,0 12,6 12,12 0,7 -6,12 -12,12 -7,0 -12,-6 -12,-12 0,-7 6,-12 12,-12z"/>
  <path class="fil1 str1" d="M420 118c3,4 36,40 36,40 4,0 8,-2 13,-3 34,-7 70,5 94,29 4,4 8,9 11,14 16,24 23,54 15,83 -3,12 -7,21 -13,32 -10,17 -26,31 -45,39 -9,4 -19,7 -30,8l-12 1c-2,0 -2,-1 -5,-1 -31,-1 -62,-18 -79,-43l-5 -8c-14,-23 -18,-53 -10,-79 1,-3 2,-5 2,-8 -2,-3 -7,-6 -10,-8l-21 -16c-2,-1 -3,-3 -5,-4 -2,-1 -4,-3 -6,-4 -4,8 -11,27 -12,36 -7,0 -13,1 -19,2 -3,0 -7,1 -9,1 -2,0 -4,0 -5,1 -2,0 -4,0 -4,2l0 51c6,0 13,1 19,2 5,1 13,1 18,2 0,4 3,11 4,15 4,12 9,22 15,33 1,2 3,4 3,6 -2,2 -4,4 -5,7 -2,3 -4,5 -6,7 -2,2 -3,4 -5,7 -2,3 -4,5 -6,7l37 37c8,-5 22,-16 29,-23 16,11 33,18 55,23 0,6 1,13 2,19l2 14c0,2 0,4 2,4l49 0c3,0 2,-6 2,-8 1,-7 3,-23 3,-29 20,-5 38,-12 55,-23 8,7 21,17 29,23l37 -37 -11 -15c-2,-2 -3,-5 -5,-7 -2,-2 -4,-5 -6,-7 1,-4 5,-8 7,-12 2,-4 5,-9 6,-13 2,-4 3,-9 5,-14 1,-4 4,-11 4,-16 9,-2 19,-2 28,-4 3,0 7,-1 9,-1l0 -53c-13,0 -24,-4 -37,-4 0,-8 -6,-22 -9,-30 -2,-5 -4,-9 -6,-13 -2,-3 -6,-10 -7,-13 4,-6 14,-18 19,-25 2,-2 1,-2 3,-4l-37 -37c-10,7 -19,16 -29,23 -10,-5 -16,-10 -28,-15 -5,-2 -10,-4 -16,-5 -6,-2 -10,-1 -11,-5 0,-2 0,-3 -1,-5 -1,-6 -2,-13 -2,-19 -2,-12 2,-11 -11,-11 -14,0 -29,0 -43,0 -1,5 -2,14 -3,20 0,3 -1,7 -1,10 0,1 0,4 -1,5 -1,3 0,2 -4,2 -11,2 -20,6 -30,10 -2,1 -3,1 -4,2z"/>
  <g>
   <g style="clip-path:url(#id0)">
    <polygon class="fil2" points="45,129 47,129 47,377 45,377 "/>
    <polygon id="1" class="fil3" points="45,129 51,129 51,377 45,377 "/>
    <polygon id="2" class="fil4" points="49,129 55,129 55,377 49,377 "/>
    <polygon id="3" class="fil4" points="53,129 58,129 58,377 53,377 "/>
    <polygon id="4" class="fil4" points="57,129 62,129 62,377 57,377 "/>
    <polygon id="5" class="fil5" points="60,129 66,129 66,377 60,377 "/>
    <polygon id="6" class="fil5" points="64,129 69,129 69,377 64,377 "/>
    <polygon id="7" class="fil5" points="68,129 73,129 73,377 68,377 "/>
    <polygon id="8" class="fil5" points="71,129 77,129 77,377 71,377 "/>
    <polygon id="9" class="fil6" points="75,129 81,129 81,377 75,377 "/>
    <polygon id="10" class="fil6" points="79,129 84,129 84,377 79,377 "/>
    <polygon id="11" class="fil6" points="82,129 88,129 88,377 82,377 "/>
    <polygon id="12" class="fil7" points="86,129 92,129 92,377 86,377 "/>
    <polygon id="13" class="fil7" points="90,129 95,129 95,377 90,377 "/>
    <polygon id="14" class="fil7" points="93,129 99,129 99,377 93,377 "/>
    <polygon id="15" class="fil8" points="97,129 103,129 103,377 97,377 "/>
    <polygon id="16" class="fil8" points="101,129 106,129 106,377 101,377 "/>
    <polygon id="17" class="fil8" points="105,129 110,129 110,377 105,377 "/>
    <polygon id="18" class="fil9" points="108,129 114,129 114,377 108,377 "/>
    <polygon id="19" class="fil9" points="112,129 118,129 118,377 112,377 "/>
    <polygon id="20" class="fil9" points="116,129 121,129 121,377 116,377 "/>
    <polygon id="21" class="fil10" points="119,129 125,129 125,377 119,377 "/>
    <polygon id="22" class="fil10" points="123,129 129,129 129,377 123,377 "/>
    <polygon id="23" class="fil10" points="127,129 132,129 132,377 127,377 "/>
    <polygon id="24" class="fil11" points="130,129 136,129 136,377 130,377 "/>
    <polygon id="25" class="fil11" points="134,129 140,129 140,377 134,377 "/>
    <polygon id="26" class="fil11" points="138,129 143,129 143,377 138,377 "/>
    <polygon id="27" class="fil12" points="142,129 147,129 147,377 142,377 "/>
    <polygon id="28" class="fil12" points="145,129 151,129 151,377 145,377 "/>
    <polygon id="29" class="fil12" points="149,129 154,129 154,377 149,377 "/>
    <polygon id="30" class="fil13" points="153,129 158,129 158,377 153,377 "/>
    <polygon id="31" class="fil13" points="156,129 162,129 162,377 156,377 "/>
    <polygon id="32" class="fil13" points="160,129 166,129 166,377 160,377 "/>
    <polygon id="33" class="fil14" points="164,129 169,129 169,377 164,377 "/>
    <polygon id="34" class="fil14" points="167,129 173,129 173,377 167,377 "/>
    <polygon id="35" class="fil14" points="171,129 177,129 177,377 171,377 "/>
    <polygon id="36" class="fil15" points="175,129 180,129 180,377 175,377 "/>
    <polygon id="37" class="fil15" points="178,129 184,129 184,377 178,377 "/>
    <polygon id="38" class="fil16" points="182,129 188,129 188,377 182,377 "/>
    <polygon id="39" class="fil16" points="186,129 191,129 191,377 186,377 "/>
    <polygon id="40" class="fil16" points="190,129 195,129 195,377 190,377 "/>
    <polygon id="41" class="fil17" points="193,129 199,129 199,377 193,377 "/>
    <polygon id="42" class="fil17" points="197,129 202,129 202,377 197,377 "/>
    <polygon id="43" class="fil17" points="201,129 206,129 206,377 201,377 "/>
    <polygon id="44" class="fil18" points="204,129 210,129 210,377 204,377 "/>
    <polygon id="45" class="fil18" points="208,129 214,129 214,377 208,377 "/>
    <polygon id="46" class="fil19" points="212,129 217,129 217,377 212,377 "/>
    <polygon id="47" class="fil19" points="215,129 221,129 221,377 215,377 "/>
    <polygon id="48" class="fil19" points="219,129 225,129 225,377 219,377 "/>
    <polygon id="49" class="fil20" points="223,129 228,129 228,377 223,377 "/>
    <polygon id="50" class="fil20" points="226,129 232,129 232,377 226,377 "/>
    <polygon id="51" class="fil21" points="230,129 236,129 236,377 230,377 "/>
    <polygon id="52" class="fil21" points="234,129 239,129 239,377 234,377 "/>
    <polygon id="53" class="fil21" points="238,129 243,129 243,377 238,377 "/>
    <polygon id="54" class="fil22" points="241,129 247,129 247,377 241,377 "/>
    <polygon id="55" class="fil22" points="245,129 250,129 250,377 245,377 "/>
    <polygon id="56" class="fil23" points="249,129 254,129 254,377 249,377 "/>
    <polygon id="57" class="fil23" points="252,129 258,129 258,377 252,377 "/>
    <polygon id="58" class="fil23" points="256,129 262,129 262,377 256,377 "/>
    <polygon id="59" class="fil24" points="260,129 265,129 265,377 260,377 "/>
    <polygon id="60" class="fil24" points="263,129 269,129 269,377 263,377 "/>
    <polygon id="61" class="fil25" points="267,129 273,129 273,377 267,377 "/>
    <polygon id="62" class="fil25" points="271,129 276,129 276,377 271,377 "/>
    <polygon id="63" class="fil25" points="275,129 280,129 280,377 275,377 "/>
    <polygon id="64" class="fil26" points="278,129 284,129 284,377 278,377 "/>
    <polygon id="65" class="fil26" points="282,129 287,129 287,377 282,377 "/>
    <polygon id="66" class="fil27" points="286,129 291,129 291,377 286,377 "/>
    <polygon id="67" class="fil27" points="289,129 295,129 295,377 289,377 "/>
    <polygon id="68" class="fil28" points="293,129 299,129 299,377 293,377 "/>
    <polygon id="69" class="fil28" points="297,129 302,129 302,377 297,377 "/>
    <polygon id="70" class="fil29" points="300,129 306,129 306,377 300,377 "/>
    <polygon id="71" class="fil29" points="304,129 310,129 310,377 304,377 "/>
    <polygon id="72" class="fil29" points="308,129 313,129 313,377 308,377 "/>
    <polygon id="73" class="fil30" points="311,129 317,129 317,377 311,377 "/>
    <polygon id="74" class="fil30" points="315,129 321,129 321,377 315,377 "/>
    <polygon id="75" class="fil31" points="319,129 324,129 324,377 319,377 "/>
    <polygon id="76" class="fil31" points="323,129 328,129 328,377 323,377 "/>
    <polygon id="77" class="fil32" points="326,129 332,129 332,377 326,377 "/>
    <polygon id="78" class="fil32" points="330,129 335,129 335,377 330,377 "/>
    <polygon id="79" class="fil33" points="334,129 339,129 339,377 334,377 "/>
    <polygon id="80" class="fil33" points="337,129 343,129 343,377 337,377 "/>
    <polygon id="81" class="fil34" points="341,129 347,129 347,377 341,377 "/>
    <polygon id="82" class="fil34" points="345,129 350,129 350,377 345,377 "/>
    <polygon id="83" class="fil35" points="348,129 354,129 354,377 348,377 "/>
    <polygon id="84" class="fil35" points="352,129 358,129 358,377 352,377 "/>
    <polygon id="85" class="fil36" points="356,129 361,129 361,377 356,377 "/>
    <polygon id="86" class="fil36" points="359,129 365,129 365,377 359,377 "/>
    <polygon id="87" class="fil37" points="363,129 369,129 369,377 363,377 "/>
    <polygon id="88" class="fil37" points="367,129 372,129 372,377 367,377 "/>
    <polygon id="89" class="fil38" points="371,129 376,129 376,377 371,377 "/>
    <polygon id="90" class="fil38" points="374,129 380,129 380,377 374,377 "/>
    <polygon id="91" class="fil39" points="378,129 383,129 383,377 378,377 "/>
    <polygon id="92" class="fil39" points="382,129 387,129 387,377 382,377 "/>
    <polygon id="93" class="fil40" points="385,129 391,129 391,377 385,377 "/>
    <polygon id="94" class="fil40" points="389,129 395,129 395,377 389,377 "/>
    <polygon id="95" class="fil41" points="393,129 398,129 398,377 393,377 "/>
    <polygon id="96" class="fil41" points="396,129 402,129 402,377 396,377 "/>
    <polygon id="97" class="fil42" points="400,129 406,129 406,377 400,377 "/>
    <polygon id="98" class="fil42" points="404,129 409,129 409,377 404,377 "/>
    <polygon id="99" class="fil43" points="407,129 413,129 413,377 407,377 "/>
    <polygon id="100" class="fil43" points="411,129 417,129 417,377 411,377 "/>
    <polygon id="101" class="fil44" points="415,129 420,129 420,377 415,377 "/>
    <polygon id="102" class="fil44" points="419,129 424,129 424,377 419,377 "/>
    <polygon id="103" class="fil45" points="422,129 428,129 428,377 422,377 "/>
    <polygon id="104" class="fil45" points="426,129 432,129 432,377 426,377 "/>
    <polygon id="105" class="fil46" points="430,129 435,129 435,377 430,377 "/>
    <polygon id="106" class="fil47" points="433,129 439,129 439,377 433,377 "/>
    <polygon id="107" class="fil47" points="437,129 443,129 443,377 437,377 "/>
    <polygon id="108" class="fil48" points="441,129 446,129 446,377 441,377 "/>
    <polygon id="109" class="fil48" points="444,129 450,129 450,377 444,377 "/>
    <polygon id="110" class="fil49" points="448,129 454,129 454,377 448,377 "/>
    <polygon id="111" class="fil49" points="452,129 457,129 457,377 452,377 "/>
    <polygon id="112" class="fil50" points="456,129 461,129 461,377 456,377 "/>
    <polygon id="113" class="fil51" points="459,129 465,129 465,377 459,377 "/>
    <polygon id="114" class="fil51" points="463,129 468,129 468,377 463,377 "/>
    <polygon id="115" class="fil52" points="467,129 472,129 472,377 467,377 "/>
    <polygon id="116" class="fil52" points="470,129 476,129 476,377 470,377 "/>
    <polygon id="117" class="fil53" points="474,129 480,129 480,377 474,377 "/>
    <polygon id="118" class="fil54" points="478,129 483,129 483,377 478,377 "/>
    <polygon id="119" class="fil54" points="481,129 487,129 487,377 481,377 "/>
    <polygon id="120" class="fil55" points="485,129 491,129 491,377 485,377 "/>
    <polygon id="121" class="fil56" points="489,129 494,129 494,377 489,377 "/>
    <polygon id="122" class="fil56" points="492,129 498,129 498,377 492,377 "/>
    <polygon id="123" class="fil57" points="496,129 502,129 502,377 496,377 "/>
    <polygon id="124" class="fil57" points="500,129 505,129 505,377 500,377 "/>
    <polygon id="125" class="fil58" points="504,129 509,129 509,377 504,377 "/>
    <polygon id="126" class="fil59" points="507,129 513,129 513,377 507,377 "/>
    <polygon id="127" class="fil59" points="511,129 516,129 516,377 511,377 "/>
    <polygon id="128" class="fil60" points="515,129 520,129 520,377 515,377 "/>
    <polygon id="129" class="fil61" points="518,129 524,129 524,377 518,377 "/>
    <polygon id="130" class="fil61" points="522,129 528,129 528,377 522,377 "/>
    <polygon id="131" class="fil62" points="526,129 531,129 531,377 526,377 "/>
    <polygon id="132" class="fil63" points="529,129 535,129 535,377 529,377 "/>
    <polygon id="133" class="fil63" points="533,129 539,129 539,377 533,377 "/>
    <polygon id="134" class="fil64" points="537,129 542,129 542,377 537,377 "/>
    <polygon id="135" class="fil65" points="540,129 546,129 546,377 540,377 "/>
    <polygon id="136" class="fil66" points="544,129 550,129 550,377 544,377 "/>
    <polygon id="137" class="fil66" points="548,129 553,129 553,377 548,377 "/>
    <polygon id="138" class="fil67" points="552,129 557,129 557,377 552,377 "/>
    <polygon id="139" class="fil68" points="555,129 561,129 561,377 555,377 "/>
    <polygon id="140" class="fil68" points="559,129 565,129 565,377 559,377 "/>
    <polygon id="141" class="fil69" points="563,129 568,129 568,377 563,377 "/>
    <polygon id="142" class="fil70" points="566,129 572,129 572,377 566,377 "/>
    <polygon id="143" class="fil71" points="570,129 576,129 576,377 570,377 "/>
    <polygon id="144" class="fil71" points="574,129 579,129 579,377 574,377 "/>
    <polygon id="145" class="fil72" points="577,129 583,129 583,377 577,377 "/>
    <polygon id="146" class="fil73" points="581,129 587,129 587,377 581,377 "/>
    <polygon id="147" class="fil74" points="585,129 590,129 590,377 585,377 "/>
    <polygon id="148" class="fil75" points="589,129 594,129 594,377 589,377 "/>
    <polygon id="149" class="fil75" points="592,129 598,129 598,377 592,377 "/>
    <polygon id="150" class="fil76" points="596,129 601,129 601,377 596,377 "/>
    <polygon id="151" class="fil77" points="600,129 605,129 605,377 600,377 "/>
    <polygon id="152" class="fil78" points="603,129 609,129 609,377 603,377 "/>
    <polygon id="153" class="fil79" points="607,129 613,129 613,377 607,377 "/>
    <polygon id="154" class="fil79" points="611,129 616,129 616,377 611,377 "/>
    <polygon id="155" class="fil80" points="614,129 620,129 620,377 614,377 "/>
    <polygon id="156" class="fil81" points="618,129 624,129 624,377 618,377 "/>
    <polygon id="157" class="fil82" points="622,129 627,129 627,377 622,377 "/>
    <polygon id="158" class="fil83" points="625,129 631,129 631,377 625,377 "/>
    <polygon id="159" class="fil84" points="629,129 635,129 635,377 629,377 "/>
    <polygon id="160" class="fil84" points="633,129 638,129 638,377 633,377 "/>
    <polygon id="161" class="fil85" points="637,129 642,129 642,377 637,377 "/>
    <polygon id="162" class="fil86" points="640,129 646,129 646,377 640,377 "/>
    <polygon id="163" class="fil87" points="644,129 649,129 649,377 644,377 "/>
    <polygon id="164" class="fil88" points="648,129 653,129 653,377 648,377 "/>
    <polygon id="165" class="fil89" points="651,129 657,129 657,377 651,377 "/>
    <polygon id="166" class="fil90" points="655,129 661,129 661,377 655,377 "/>
    <polygon id="167" class="fil91" points="659,129 664,129 664,377 659,377 "/>
    <polygon id="168" class="fil92" points="662,129 668,129 668,377 662,377 "/>
    <polygon id="169" class="fil92" points="666,129 672,129 672,377 666,377 "/>
    <polygon id="170" class="fil93" points="670,129 675,129 675,377 670,377 "/>
    <polygon id="171" class="fil94" points="673,129 679,129 679,377 673,377 "/>
    <polygon id="172" class="fil95" points="677,129 683,129 683,377 677,377 "/>
    <polygon id="173" class="fil96" points="681,129 686,129 686,377 681,377 "/>
    <polygon id="174" class="fil97" points="685,129 690,129 690,377 685,377 "/>
    <polygon id="175" class="fil98" points="688,129 694,129 694,377 688,377 "/>
    <polygon id="176" class="fil99" points="692,129 697,129 697,377 692,377 "/>
    <polygon id="177" class="fil100" points="696,129 701,129 701,377 696,377 "/>
    <polygon id="178" class="fil101" points="699,129 705,129 705,377 699,377 "/>
    <polygon id="179" class="fil102" points="703,129 709,129 709,377 703,377 "/>
    <polygon id="180" class="fil103" points="707,129 712,129 712,377 707,377 "/>
    <polygon id="181" class="fil104" points="710,129 716,129 716,377 710,377 "/>
    <polygon id="182" class="fil104" points="714,129 720,129 720,377 714,377 "/>
    <polygon id="183" class="fil105" points="718,129 723,129 723,377 718,377 "/>
    <polygon id="184" class="fil106" points="722,129 727,129 727,377 722,377 "/>
    <polygon id="185" class="fil107" points="725,129 731,129 731,377 725,377 "/>
    <polygon id="186" class="fil108" points="729,129 734,129 734,377 729,377 "/>
    <polygon id="187" class="fil109" points="733,129 738,129 738,377 733,377 "/>
    <polygon id="188" class="fil110" points="736,129 742,129 742,377 736,377 "/>
    <polygon id="189" class="fil111" points="740,129 746,129 746,377 740,377 "/>
    <polygon id="190" class="fil112" points="744,129 749,129 749,377 744,377 "/>
    <polygon id="191" class="fil113" points="747,129 753,129 753,377 747,377 "/>
    <polygon id="192" class="fil114" points="751,129 757,129 757,377 751,377 "/>
    <polygon id="193" class="fil115" points="755,129 760,129 760,377 755,377 "/>
    <polygon id="194" class="fil116" points="758,129 764,129 764,377 758,377 "/>
    <polygon id="195" class="fil117" points="762,129 768,129 768,377 762,377 "/>
    <polygon id="196" class="fil118" points="766,129 771,129 771,377 766,377 "/>
    <polygon id="197" class="fil119" points="770,129 775,129 775,377 770,377 "/>
    <polygon id="198" class="fil120" points="773,129 779,129 779,377 773,377 "/>
    <polygon id="199" class="fil120" points="777,129 782,129 782,377 777,377 "/>
    <polygon id="200" class="fil121" points="781,129 786,129 786,377 781,377 "/>
    <polygon id="201" class="fil122" points="784,129 790,129 790,377 784,377 "/>
    <polygon id="202" class="fil123" points="788,129 794,129 794,377 788,377 "/>
    <polygon id="203" class="fil124" points="792,129 797,129 797,377 792,377 "/>
    <polygon id="204" class="fil125" points="795,129 801,129 801,377 795,377 "/>
    <polygon id="205" class="fil126" points="799,129 805,129 805,377 799,377 "/>
    <polygon id="206" class="fil127" points="803,129 808,129 808,377 803,377 "/>
    <polygon id="207" class="fil128" points="806,129 812,129 812,377 806,377 "/>
    <polygon id="208" class="fil129" points="810,129 816,129 816,377 810,377 "/>
    <polygon id="209" class="fil130" points="814,129 819,129 819,377 814,377 "/>
    <polygon id="210" class="fil131" points="818,129 823,129 823,377 818,377 "/>
    <polygon id="211" class="fil132" points="821,129 827,129 827,377 821,377 "/>
    <polygon id="212" class="fil133" points="825,129 830,129 830,377 825,377 "/>
    <polygon id="213" class="fil134" points="829,129 834,129 834,377 829,377 "/>
    <polygon id="214" class="fil135" points="832,129 838,129 838,377 832,377 "/>
    <polygon id="215" class="fil136" points="836,129 842,129 842,377 836,377 "/>
    <polygon id="216" class="fil137" points="840,129 845,129 845,377 840,377 "/>
    <polygon id="217" class="fil138" points="843,129 849,129 849,377 843,377 "/>
    <polygon id="218" class="fil139" points="847,129 853,129 853,377 847,377 "/>
    <polygon id="219" class="fil140" points="851,129 856,129 856,377 851,377 "/>
    <polygon id="220" class="fil141" points="854,129 860,129 860,377 854,377 "/>
    <polygon id="221" class="fil142" points="858,129 864,129 864,377 858,377 "/>
    <polygon id="222" class="fil143" points="862,129 867,129 867,377 862,377 "/>
    <polygon id="223" class="fil144" points="866,129 871,129 871,377 866,377 "/>
    <polygon id="224" class="fil145" points="869,129 875,129 875,377 869,377 "/>
    <polygon id="225" class="fil146" points="873,129 879,129 879,377 873,377 "/>
    <polygon id="226" class="fil147" points="877,129 882,129 882,377 877,377 "/>
    <polygon id="227" class="fil148" points="880,129 886,129 886,377 880,377 "/>
    <polygon id="228" class="fil149" points="884,129 890,129 890,377 884,377 "/>
    <polygon id="229" class="fil150" points="888,129 893,129 893,377 888,377 "/>
    <polygon id="230" class="fil151" points="891,129 897,129 897,377 891,377 "/>
    <polygon id="231" class="fil152" points="895,129 901,129 901,377 895,377 "/>
    <polygon id="232" class="fil153" points="899,129 904,129 904,377 899,377 "/>
    <polygon id="233" class="fil154" points="903,129 908,129 908,377 903,377 "/>
    <polygon id="234" class="fil155" points="906,129 912,129 912,377 906,377 "/>
    <polygon id="235" class="fil156" points="910,129 915,129 915,377 910,377 "/>
    <polygon id="236" class="fil157" points="914,129 919,129 919,377 914,377 "/>
    <polygon id="237" class="fil158" points="917,129 923,129 923,377 917,377 "/>
    <polygon id="238" class="fil159" points="921,129 927,129 927,377 921,377 "/>
    <polygon id="239" class="fil160" points="925,129 930,129 930,377 925,377 "/>
    <polygon id="240" class="fil161" points="928,129 934,129 934,377 928,377 "/>
    <polygon id="241" class="fil162" points="932,129 938,129 938,377 932,377 "/>
    <polygon id="242" class="fil163" points="936,129 941,129 941,377 936,377 "/>
    <polygon id="243" class="fil164" points="939,129 945,129 945,377 939,377 "/>
    <polygon id="244" class="fil165" points="943,129 949,129 949,377 943,377 "/>
    <polygon id="245" class="fil166" points="947,129 952,129 952,377 947,377 "/>
    <polygon id="246" class="fil167" points="951,129 956,129 956,377 951,377 "/>
    <polygon id="247" class="fil168" points="954,129 960,129 960,377 954,377 "/>
    <polygon id="248" class="fil169" points="958,129 963,129 963,377 958,377 "/>
    <polygon id="249" class="fil170" points="962,129 967,129 967,377 962,377 "/>
    <polygon id="250" class="fil171" points="965,129 971,129 971,377 965,377 "/>
    <polygon id="251" class="fil172" points="969,129 975,129 975,377 969,377 "/>
    <polygon id="252" class="fil173" points="973,129 978,129 978,377 973,377 "/>
    <polygon id="253" class="fil174" points="976,129 982,129 982,377 976,377 "/>
    <polygon id="254" class="fil175" points="980,129 986,129 986,377 980,377 "/>
    <polygon id="255" class="fil176" points="984,129 991,129 991,377 984,377 "/>
   </g>
  </g>
  <path class="fil177" d="M487 173c8,0 19,2 32,6 2,0 3,1 4,1 1,0 3,-1 7,-2 1,0 3,-1 4,-1 5,0 11,4 17,12 6,8 9,16 9,24 0,4 -1,8 -4,11 -3,3 -6,5 -10,5 -3,0 -6,-1 -8,-2 -2,-1 -6,-5 -13,-11 -9,-9 -19,-13 -28,-13 -4,0 -8,1 -11,3 -3,2 -4,5 -4,8 0,7 6,12 18,15 16,5 27,8 31,10 20,10 30,24 30,43 0,17 -7,30 -20,41 -14,11 -32,16 -55,16 -10,0 -21,-1 -32,-4 -11,-2 -19,-5 -24,-8 -4,-2 -7,-8 -10,-16 -3,-8 -5,-17 -5,-25 0,-4 1,-7 2,-9 2,-3 4,-4 7,-4 3,0 6,2 9,5 2,2 6,7 12,17 3,4 8,8 14,11 6,3 13,4 20,4 6,0 11,-1 14,-3 4,-2 5,-5 5,-8 0,-3 -1,-6 -4,-8 -3,-2 -7,-4 -14,-6 -11,-4 -20,-7 -26,-10 -6,-3 -11,-7 -16,-11 -12,-11 -19,-23 -19,-37 0,-7 2,-14 5,-20 3,-7 8,-12 14,-17 13,-11 29,-17 48,-17z"/>
 </g>
</svg>
