<?xml version="1.0" encoding="UTF-8"?>
<!DOCTYPE svg PUBLIC "-//W3C//DTD SVG 1.1//EN" "http://www.w3.org/Graphics/SVG/1.1/DTD/svg11.dtd">
<!-- Creator: CorelDRAW 2017 -->
<svg xmlns="http://www.w3.org/2000/svg" xml:space="preserve" width="10%" height="10%" version="1.1" style="shape-rendering:geometricPrecision; text-rendering:geometricPrecision; image-rendering:optimizeQuality; fill-rule:evenodd; clip-rule:evenodd"
viewBox="0 0 433 433"
 xmlns:xlink="http://www.w3.org/1999/xlink">
 <defs>
  <style type="text/css">
   <![CDATA[
    .str1 {stroke:#434242;stroke-width:2}
    .str0 {stroke:#2B2A29;stroke-width:2}
    .str2 {stroke:#7690C9;stroke-width:2}
    .fil0 {fill:none}
    .fil1 {fill:#434242}
    .fil2 {fill:#7690C9}
   ]]>
  </style>
 </defs>
 <g id="Слой_x0020_1">
  <metadata id="CorelCorpID_0Corel-Layer"/>
  <rect class="fil0 str0" x="4" y="36" width="426" height="254" rx="20" ry="20"/>
  <path class="fil1 str1" d="M78 376c0,-16 62,-29 138,-29 76,0 138,13 138,29l-277 0z"/>
  <line class="fil0 str0" x1="78" y1="376" x2="355" y2= "376" />
  <line class="fil0 str0" x1="204" y1="290" x2="204" y2= "347" />
  <line class="fil0 str0" x1="230" y1="290" x2="230" y2= "347" />
  <path class="fil1 str1" d="M40 52l354 0c10,0 18,8 18,18l0 185c0,10 -8,18 -18,18l-354 0c-10,0 -18,-8 -18,-18l0 -185c0,-10 8,-18 18,-18zm370 -17l-385 0c-11,0 -20,9 -20,20l0 213c0,11 9,20 20,20l180 0 26 0 179 0c11,0 20,-9 20,-20l0 -213c0,-11 -9,-20 -20,-20z"/>
  <path class="fil1 str1" d="M230 290l-26 0 0 57c4,0 8,0 13,0 5,0 9,0 14,0l0 -57z"/>
  <path class="fil2 str2" d="M47 264l339 0c9,0 17,-7 17,-16l0 -171c0,-9 -8,-16 -17,-16l-339 0c-9,0 -17,7 -17,16l0 171c0,9 8,16 17,16z"/>
  <path class="fil1 str1" d="M47 61l339 0c9,0 17,7 17,16l0 171c0,9 -8,16 -17,16l-339 0c-9,0 -17,-7 -17,-16l0 -171c0,-9 8,-16 17,-16zm347 -8l-354 0c-10,0 -18,8 -18,18l0 185c0,10 8,18 18,18l354 0c10,0 18,-8 18,-18l0 -185c0,-10 -8,-18 -18,-18z"/>
 </g>
</svg>
