<svg xmlns="http://www.w3.org/2000/svg" width="1200" height="500" shape-rendering="geometricPrecision" text-rendering="geometricPrecision" image-rendering="optimizeQuality" fill-rule="evenodd" clip-rule="evenodd"><defs><radialGradient id="id1" gradientUnits="userSpaceOnUse" gradientTransform="matrix(1.23007 0 0 1.40966 -130 -100)" cx="566" cy="244" r="70" fx="566" fy="244"><stop offset="0" stop-color="#f0f71b"/><stop offset=".51" stop-color="#efbb1a"/><stop offset="1" stop-color="#ef7f1a"/></radialGradient><clipPath id="id0" clip-rule="nonzero"><path d="M151 141c0 12-2 21-6 29-4 7-8 11-13 11s-10-4-13-11c-4-8-6-18-6-29 0-4 0-7 1-10-10 0-19 12-28 37-8 23-12 46-12 71 0 45 13 68 38 68h36c-1 18-7 26-17 26h-26c-16 0-30-6-40-16-14-15-21-40-21-74 0-19 3-38 8-57 7-26 16-47 29-62 12-15 25-22 39-22h14c5 0 9 4 12 12 4 8 5 17 5 28zm118 80c-2 18-8 26-17 26h-45c2 2 3 7 4 13s1 12 1 17c-1 18-4 33-10 43s-14 15-24 15c-11 0-20-5-26-15-5-9-8-21-8-36v-9c1-17 5-30 11-39 6-10 15-15 25-15h89zm-78 26h-16l-6 42v6c0 10 4 14 11 14h2l10-63zm181 59c-1 18-7 26-16 26h-29c-2 0-4-2-6-7-2-4-3-9-3-15v-5c1-8 3-20 5-35l-24 47c-6 12-11 17-16 17-6 0-10-6-10-17 0-4 0-8 1-12l6-35-28 55c-2 5-5 7-9 7h-15l15-112h25l-8 56 23-44c6-11 12-17 19-17 6 0 9 5 9 15 0 3 0 6-1 9l-5 33 21-42c5-10 11-15 17-15s9 6 9 18c0 4 0 8-1 13l-9 59h29zm93 0c0 8-2 15-6 20-3 4-7 6-11 6h-39c-6 0-9-7-9-21 2-2 4-4 7-6 3-3 6-7 7-12 2-6 3-14 3-24 0-6-1-11-4-16s-6-7-10-7l-20 149h-26l29-215h26l-6 40c11 0 19 1 23 3 9 5 14 18 14 38 0 9-2 18-5 26-3 9-7 15-11 18h38zm313 0c-1 8-3 15-7 20-3 4-7 6-11 6h-40c-23 0-35-16-35-48 0-21 4-37 12-49 7-10 15-15 24-15h10c6 0 11 2 16 6 6 6 9 14 10 26 0 12-2 21-7 29h-24l8-35h-15l-6 40v6c0 9 3 13 9 13h56zm83 0c0 8-2 14-6 19-3 5-7 7-10 7h-27c-7 0-11-7-11-21 0-4 0-7 1-11l7-54h-15l-11 47c-1 8-3 12-7 12h-6l9-59c-3-2-5-5-7-10s-3-11-3-18c0-13 3-22 8-29 4-6 9-9 15-9h11l-6 40h38l-12 86h30zm107-86c-1 10-4 17-8 21-3 3-6 5-10 5h-30l-30 86h-29l-3-112h26v81l27-81h57zm15-68c0 11-2 20-6 28s-8 12-13 12-10-4-13-12c-4-8-6-17-6-28s2-20 6-28 8-12 13-12 10 4 13 12c4 8 6 17 6 28zm7 153c-1 10-4 17-8 21-3 3-6 5-9 5h-28c-7 0-10-7-10-20 0-4 0-8 1-12l11-80h26l-12 86h29zm89 0c-1 9-3 15-7 20-3 4-7 6-11 6h-43c-8 0-15-3-21-10-7-8-11-20-11-36v-5c1-20 5-35 13-46 7-10 15-15 25-15h18c4 0 7 3 10 9s4 13 4 22-1 16-4 22-6 9-10 9-7-3-10-9-4-14-4-22v-4h-9l-6 36c0 3-1 6-1 8 0 10 3 15 10 15h55zm89 0c-1 8-3 15-7 20-3 4-7 6-11 6h-40c-23 0-35-16-35-48 0-21 4-37 12-49 7-10 15-15 24-15h10c6 0 11 2 16 6 6 6 9 14 10 26 0 12-2 21-7 29h-24l8-35h-15l-6 40v6c0 9 3 13 9 13h56z"/></clipPath><style>.fil3{fill:#ffed00;fill-rule:nonzero}.fil4,.fil5,.fil6{fill:#ffec00;fill-rule:nonzero}.fil5,.fil6{fill:#feec00}.fil7,.fil8,.fil9{fill:#fdeb00;fill-rule:nonzero}.fil9{fill:#fceb00}.fil10,.fil11,.fil12{fill:#fcea00;fill-rule:nonzero}.fil12{fill:#fbea00}.fil13,.fil14,.fil15{fill:#fbe900;fill-rule:nonzero}.fil14,.fil15{fill:#fae900}.fil16,.fil17,.fil18{fill:#f9e800;fill-rule:nonzero}.fil19,.fil20,.fil21{fill:#f8e700;fill-rule:nonzero}.fil20,.fil21{fill:#f7e700}.fil22{fill:#f6e600}.fil22,.fil23,.fil24{fill-rule:nonzero}.fil23{fill:#f5e600}.fil24{fill:#f4e600}.fil25{fill:#f4e500}.fil25,.fil26,.fil27{fill-rule:nonzero}.fil26{fill:#f3e500}.fil27{fill:#f2e500}.fil28,.fil29,.fil30{fill:#f1e400;fill-rule:nonzero}.fil29,.fil30{fill:#f0e400}.fil31{fill:#efe300}.fil31,.fil32,.fil33{fill-rule:nonzero}.fil32{fill:#eee300}.fil33{fill:#ede300}.fil34,.fil35,.fil36{fill:#ece200;fill-rule:nonzero}.fil36{fill:#ebe200}.fil37,.fil38,.fil39{fill:#eae100;fill-rule:nonzero}.fil38,.fil39{fill:#e9e100}.fil40{fill:#e8e000}.fil40,.fil41,.fil42{fill-rule:nonzero}.fil41{fill:#e7e000}.fil42{fill:#e6e000}.fil43,.fil44{fill:#e5df00}.fil43,.fil44,.fil46,.fil47{fill-rule:nonzero}.fil46{fill:#e3de00}.fil47{fill:#e2de00}.fil48{fill:#e1de00}.fil48,.fil50,.fil51{fill-rule:nonzero}.fil50{fill:#e0dd00}.fil51{fill:#dfdd00}.fil53{fill:#dedc00}.fil53,.fil55,.fil56{fill-rule:nonzero}.fil55{fill:#dcdb00}.fil56{fill:#dbdb00}.fil58{fill:#d9da00}.fil58,.fil60,.fil62{fill-rule:nonzero}.fil60{fill:#d8da00}.fil62{fill:#d6d900}.fil65{fill:#d3d800}.fil65,.fil67,.fil70{fill-rule:nonzero}.fil67{fill:#d2d700}.fil70{fill:#cfd600}.fil74{fill:#ccd504}.fil74,.fil78,.fil83{fill-rule:nonzero}.fil78{fill:#c8d409}.fil83{fill:#c4d20f}.fil103,.fil119,.fil91{fill-rule:nonzero}.fil91{fill:#bccf17}.fil103{fill:#b1cb1f}.fil119{fill:#a1c527}</style></defs><g id="Слой_x0020_1"><path d="M490 88c3 5 42 47 43 47 5 0 10-2 15-3 41-8 83 6 111 35 5 5 9 10 13 16 19 28 27 64 18 99-4 14-9 26-16 38-12 20-31 37-54 46-11 5-23 8-36 10l-14 1c-3 0-3-1-6-1-37-1-73-21-94-51l-6-9c-16-27-21-63-12-94l3-9c-3-4-8-7-12-10l-25-19c-2-2-4-3-6-5s-4-4-7-5c-5 9-14 32-14 43-8 0-15 2-23 2-4 0-8 1-11 1-2 0-4 0-6 1-3 0-4 0-4 3v60c7 0 15 2 22 3 6 1 16 1 22 3 0 5 3 14 5 18 5 14 10 27 18 40 2 3 3 4 4 8-2 3-4 5-6 8s-4 6-7 9c-2 3-4 5-6 8-3 3-4 6-7 9l43 44c9-6 26-19 35-27 19 13 39 21 65 27 0 7 2 15 3 22l2 17c0 3 0 5 2 5h59c3 0 3-7 3-9 1-8 4-27 4-34 24-6 45-14 65-27 9 8 25 21 35 27l43-44-13-17c-2-3-4-5-6-8s-5-6-7-9c1-5 6-10 8-14 3-5 5-10 8-16 2-5 4-11 6-16s4-13 5-18c10-2 22-3 33-4 3 0 8-1 11-1v-63c-15 0-29-5-44-5 0-10-7-26-11-35-3-6-5-10-7-16-2-4-7-11-8-15 5-8 17-22 23-30 2-2 2-2 3-5l-43-44c-12 8-23 19-35 27-12-6-20-12-33-17-7-3-12-4-19-6-8-2-12-1-13-6 0-2 0-4-1-6-1-7-2-15-3-22-2-15 3-13-13-13h-51c-1 6-3 17-3 24 0 4-1 8-1 12 0 2 0 5-1 6-1 3 0 2-4 3-13 3-24 7-36 12-2 1-3 1-5 2z" fill="#898989" stroke="#727271"/><g clip-path="url(#id0)"><path fill="#ffed00" fill-rule="nonzero" d="M44 100h2v296h-2z"/><path id="1" fill="#ffed00" fill-rule="nonzero" d="M44 100h6v296h-6z"/><path id="2" class="fil3" d="M48 100h7v296h-7z"/><path id="3" class="fil3" d="M53 100h6v296h-6z"/><path id="4" class="fil3" d="M57 100h7v296h-7z"/><path id="5" class="fil4" d="M61 100h7v296h-7z"/><path id="6" class="fil4" d="M66 100h6v296h-6z"/><path id="7" class="fil4" d="M70 100h7v296h-7z"/><path id="8" class="fil4" d="M75 100h6v296h-6z"/><path id="9" class="fil5" d="M79 100h7v296h-7z"/><path id="10" class="fil5" d="M83 100h7v296h-7z"/><path id="11" class="fil5" d="M88 100h6v296h-6z"/><path id="12" class="fil6" d="M92 100h7v296h-7z"/><path id="13" class="fil6" d="M97 100h6v296h-6z"/><path id="14" class="fil6" d="M101 100h7v296h-7z"/><path id="15" class="fil7" d="M105 100h7v296h-7z"/><path id="16" class="fil7" d="M110 100h6v296h-6z"/><path id="17" class="fil7" d="M114 100h7v296h-7z"/><path id="18" class="fil8" d="M118 100h7v296h-7z"/><path id="19" class="fil8" d="M123 100h6v296h-6z"/><path id="20" class="fil8" d="M127 100h7v296h-7z"/><path id="21" class="fil9" d="M132 100h6v296h-6z"/><path id="22" class="fil9" d="M136 100h7v296h-7z"/><path id="23" class="fil9" d="M140 100h7v296h-7z"/><path id="24" class="fil10" d="M145 100h6v296h-6z"/><path id="25" class="fil10" d="M149 100h7v296h-7z"/><path id="26" class="fil10" d="M154 100h6v296h-6z"/><path id="27" class="fil11" d="M158 100h7v296h-7z"/><path id="28" class="fil11" d="M162 100h7v296h-7z"/><path id="29" class="fil11" d="M167 100h6v296h-6z"/><path id="30" class="fil12" d="M171 100h7v296h-7z"/><path id="31" class="fil12" d="M176 100h6v296h-6z"/><path id="32" class="fil12" d="M180 100h7v296h-7z"/><path id="33" class="fil13" d="M184 100h7v296h-7z"/><path id="34" class="fil13" d="M189 100h6v296h-6z"/><path id="35" class="fil13" d="M193 100h7v296h-7z"/><path id="36" class="fil14" d="M198 100h6v296h-6z"/><path id="37" class="fil14" d="M202 100h7v296h-7z"/><path id="38" class="fil15" d="M206 100h7v296h-7z"/><path id="39" class="fil15" d="M211 100h6v296h-6z"/><path id="40" class="fil15" d="M215 100h7v296h-7z"/><path id="41" class="fil16" d="M220 100h6v296h-6z"/><path id="42" class="fil16" d="M224 100h7v296h-7z"/><path id="43" class="fil16" d="M228 100h7v296h-7z"/><path id="44" class="fil17" d="M233 100h6v296h-6z"/><path id="45" class="fil17" d="M237 100h7v296h-7z"/><path id="46" class="fil18" d="M242 100h6v296h-6z"/><path id="47" class="fil18" d="M246 100h7v296h-7z"/><path id="48" class="fil18" d="M250 100h7v296h-7z"/><path id="49" class="fil19" d="M255 100h6v296h-6z"/><path id="50" class="fil19" d="M259 100h7v296h-7z"/><path id="51" class="fil20" d="M264 100h6v296h-6z"/><path id="52" class="fil20" d="M268 100h7v296h-7z"/><path id="53" class="fil20" d="M272 100h7v296h-7z"/><path id="54" class="fil21" d="M277 100h6v296h-6z"/><path id="55" class="fil21" d="M281 100h7v296h-7z"/><path id="56" class="fil22" d="M286 100h6v296h-6z"/><path id="57" class="fil22" d="M290 100h6v296h-6z"/><path id="58" class="fil22" d="M294 100h7v296h-7z"/><path id="59" class="fil23" d="M299 100h6v296h-6z"/><path id="60" class="fil23" d="M303 100h7v296h-7z"/><path id="61" class="fil24" d="M307 100h7v296h-7z"/><path id="62" class="fil24" d="M312 100h6v296h-6z"/><path id="63" class="fil24" d="M316 100h7v296h-7z"/><path id="64" class="fil25" d="M321 100h6v296h-6z"/><path id="65" class="fil25" d="M325 100h7v296h-7z"/><path id="66" class="fil26" d="M329 100h7v296h-7z"/><path id="67" class="fil26" d="M334 100h6v296h-6z"/><path id="68" class="fil27" d="M338 100h7v296h-7z"/><path id="69" class="fil27" d="M343 100h6v296h-6z"/><path id="70" class="fil28" d="M347 100h7v296h-7z"/><path id="71" class="fil28" d="M351 100h7v296h-7z"/><path id="72" class="fil28" d="M356 100h6v296h-6z"/><path id="73" class="fil29" d="M360 100h7v296h-7z"/><path id="74" class="fil29" d="M365 100h6v296h-6z"/><path id="75" class="fil30" d="M369 100h7v296h-7z"/><path id="76" class="fil30" d="M373 100h7v296h-7z"/><path id="77" class="fil31" d="M378 100h6v296h-6z"/><path id="78" class="fil31" d="M382 100h7v296h-7z"/><path id="79" class="fil32" d="M387 100h6v296h-6z"/><path id="80" class="fil32" d="M391 100h7v296h-7z"/><path id="81" class="fil33" d="M395 100h7v296h-7z"/><path id="82" class="fil33" d="M400 100h6v296h-6z"/><path id="83" class="fil34" d="M404 100h7v296h-7z"/><path id="84" class="fil34" d="M409 100h6v296h-6z"/><path id="85" class="fil35" d="M413 100h7v296h-7z"/><path id="86" class="fil35" d="M417 100h7v296h-7z"/><path id="87" class="fil36" d="M422 100h6v296h-6z"/><path id="88" class="fil36" d="M426 100h7v296h-7z"/><path id="89" class="fil37" d="M431 100h6v296h-6z"/><path id="90" class="fil37" d="M435 100h7v296h-7z"/><path id="91" class="fil38" d="M439 100h7v296h-7z"/><path id="92" class="fil38" d="M444 100h6v296h-6z"/><path id="93" class="fil39" d="M448 100h7v296h-7z"/><path id="94" class="fil39" d="M453 100h6v296h-6z"/><path id="95" class="fil40" d="M457 100h6v296h-6z"/><path id="96" class="fil40" d="M461 100h7v296h-7z"/><path id="97" class="fil41" d="M466 100h6v296h-6z"/><path id="98" class="fil41" d="M470 100h7v296h-7z"/><path id="99" class="fil42" d="M474 100h7v296h-7z"/><path id="100" class="fil42" d="M479 100h6v296h-6z"/><path id="101" class="fil43" d="M483 100h7v296h-7z"/><path id="102" class="fil43" d="M488 100h6v296h-6z"/><path id="103" class="fil44" d="M492 100h7v296h-7z"/><path id="104" class="fil44" d="M496 100h7v296h-7z"/><path id="105" fill="#e4df00" fill-rule="nonzero" d="M501 100h6v296h-6z"/><path id="106" class="fil46" d="M505 100h7v296h-7z"/><path id="107" class="fil46" d="M510 100h6v296h-6z"/><path id="108" class="fil47" d="M514 100h7v296h-7z"/><path id="109" class="fil47" d="M518 100h7v296h-7z"/><path id="110" class="fil48" d="M523 100h6v296h-6z"/><path id="111" class="fil48" d="M527 100h7v296h-7z"/><path id="112" fill="#e1dd00" fill-rule="nonzero" d="M532 100h6v296h-6z"/><path id="113" class="fil50" d="M536 100h7v296h-7z"/><path id="114" class="fil50" d="M540 100h7v296h-7z"/><path id="115" class="fil51" d="M545 100h6v296h-6z"/><path id="116" class="fil51" d="M549 100h7v296h-7z"/><path id="117" fill="#dedc00" fill-rule="nonzero" d="M554 100h6v296h-6z"/><path id="118" class="fil53" d="M558 100h7v296h-7z"/><path id="119" class="fil53" d="M562 100h7v296h-7z"/><path id="120" fill="#dddc00" fill-rule="nonzero" d="M567 100h6v296h-6z"/><path id="121" class="fil55" d="M571 100h7v296h-7z"/><path id="122" class="fil55" d="M576 100h6v296h-6z"/><path id="123" class="fil56" d="M580 100h7v296h-7z"/><path id="124" class="fil56" d="M584 100h7v296h-7z"/><path id="125" fill="#dadb00" fill-rule="nonzero" d="M589 100h6v296h-6z"/><path id="126" class="fil58" d="M593 100h7v296h-7z"/><path id="127" class="fil58" d="M598 100h6v296h-6z"/><path id="128" fill="#d8da00" fill-rule="nonzero" d="M602 100h7v296h-7z"/><path id="129" class="fil60" d="M606 100h7v296h-7z"/><path id="130" class="fil60" d="M611 100h6v296h-6z"/><path id="131" fill="#d7d900" fill-rule="nonzero" d="M615 100h7v296h-7z"/><path id="132" class="fil62" d="M620 100h6v296h-6z"/><path id="133" class="fil62" d="M624 100h6v296h-6z"/><path id="134" fill="#d5d900" fill-rule="nonzero" d="M628 100h7v296h-7z"/><path id="135" fill="#d4d800" fill-rule="nonzero" d="M633 100h6v296h-6z"/><path id="136" class="fil65" d="M637 100h7v296h-7z"/><path id="137" class="fil65" d="M641 100h7v296h-7z"/><path id="138" fill="#d3d800" fill-rule="nonzero" d="M646 100h6v296h-6z"/><path id="139" class="fil67" d="M650 100h7v296h-7z"/><path id="140" class="fil67" d="M655 100h6v296h-6z"/><path id="141" fill="#d1d700" fill-rule="nonzero" d="M659 100h7v296h-7z"/><path id="142" fill="#d0d700" fill-rule="nonzero" d="M663 100h7v296h-7z"/><path id="143" class="fil70" d="M668 100h6v296h-6z"/><path id="144" class="fil70" d="M672 100h7v296h-7z"/><path id="145" fill="#ced601" fill-rule="nonzero" d="M677 100h6v296h-6z"/><path id="146" fill="#cdd602" fill-rule="nonzero" d="M681 100h7v296h-7z"/><path id="147" fill="#cdd503" fill-rule="nonzero" d="M685 100h7v296h-7z"/><path id="148" class="fil74" d="M690 100h6v296h-6z"/><path id="149" class="fil74" d="M694 100h7v296h-7z"/><path id="150" fill="#cbd506" fill-rule="nonzero" d="M699 100h6v296h-6z"/><path id="151" fill="#cad407" fill-rule="nonzero" d="M703 100h7v296h-7z"/><path id="152" fill="#c9d408" fill-rule="nonzero" d="M707 100h7v296h-7z"/><path id="153" class="fil78" d="M712 100h6v296h-6z"/><path id="154" class="fil78" d="M716 100h7v296h-7z"/><path id="155" fill="#c7d30a" fill-rule="nonzero" d="M721 100h6v296h-6z"/><path id="156" fill="#c6d30c" fill-rule="nonzero" d="M725 100h7v296h-7z"/><path id="157" fill="#c5d30d" fill-rule="nonzero" d="M729 100h7v296h-7z"/><path id="158" fill="#c4d20e" fill-rule="nonzero" d="M734 100h6v296h-6z"/><path id="159" class="fil83" d="M738 100h7v296h-7z"/><path id="160" class="fil83" d="M743 100h6v296h-6z"/><path id="161" fill="#c3d210" fill-rule="nonzero" d="M747 100h7v296h-7z"/><path id="162" fill="#c2d112" fill-rule="nonzero" d="M751 100h7v296h-7z"/><path id="163" fill="#c1d113" fill-rule="nonzero" d="M756 100h6v296h-6z"/><path id="164" fill="#c0d114" fill-rule="nonzero" d="M760 100h7v296h-7z"/><path id="165" fill="#bfd015" fill-rule="nonzero" d="M765 100h6v296h-6z"/><path id="166" fill="#bed015" fill-rule="nonzero" d="M769 100h7v296h-7z"/><path id="167" fill="#bdcf16" fill-rule="nonzero" d="M773 100h7v296h-7z"/><path id="168" class="fil91" d="M778 100h6v296h-6z"/><path id="169" class="fil91" d="M782 100h7v296h-7z"/><path id="170" fill="#bbcf17" fill-rule="nonzero" d="M787 100h6v296h-6z"/><path id="171" fill="#bace18" fill-rule="nonzero" d="M791 100h6v296h-6z"/><path id="172" fill="#b9ce19" fill-rule="nonzero" d="M795 100h7v296h-7z"/><path id="173" fill="#b8ce19" fill-rule="nonzero" d="M800 100h6v296h-6z"/><path id="174" fill="#b7cd1a" fill-rule="nonzero" d="M804 100h7v296h-7z"/><path id="175" fill="#b7cd1b" fill-rule="nonzero" d="M808 100h7v296h-7z"/><path id="176" fill="#b6cd1b" fill-rule="nonzero" d="M813 100h6v296h-6z"/><path id="177" fill="#b5cc1c" fill-rule="nonzero" d="M817 100h7v296h-7z"/><path id="178" fill="#b4cc1d" fill-rule="nonzero" d="M822 100h6v296h-6z"/><path id="179" fill="#b3cc1d" fill-rule="nonzero" d="M826 100h7v296h-7z"/><path id="180" fill="#b2cb1e" fill-rule="nonzero" d="M830 100h7v296h-7z"/><path id="181" class="fil103" d="M835 100h6v296h-6z"/><path id="182" class="fil103" d="M839 100h7v296h-7z"/><path id="183" fill="#b0cb1f" fill-rule="nonzero" d="M844 100h6v296h-6z"/><path id="184" fill="#afca20" fill-rule="nonzero" d="M848 100h7v296h-7z"/><path id="185" fill="#aeca20" fill-rule="nonzero" d="M852 100h7v296h-7z"/><path id="186" fill="#adc921" fill-rule="nonzero" d="M857 100h6v296h-6z"/><path id="187" fill="#acc921" fill-rule="nonzero" d="M861 100h7v296h-7z"/><path id="188" fill="#abc922" fill-rule="nonzero" d="M866 100h6v296h-6z"/><path id="189" fill="#aac822" fill-rule="nonzero" d="M870 100h7v296h-7z"/><path id="190" fill="#a9c823" fill-rule="nonzero" d="M874 100h7v296h-7z"/><path id="191" fill="#a8c823" fill-rule="nonzero" d="M879 100h6v296h-6z"/><path id="192" fill="#a7c724" fill-rule="nonzero" d="M883 100h7v296h-7z"/><path id="193" fill="#a6c724" fill-rule="nonzero" d="M888 100h6v296h-6z"/><path id="194" fill="#a5c725" fill-rule="nonzero" d="M892 100h7v296h-7z"/><path id="195" fill="#a4c625" fill-rule="nonzero" d="M896 100h7v296h-7z"/><path id="196" fill="#a3c626" fill-rule="nonzero" d="M901 100h6v296h-6z"/><path id="197" fill="#a2c626" fill-rule="nonzero" d="M905 100h7v296h-7z"/><path id="198" class="fil119" d="M910 100h6v296h-6z"/><path id="199" class="fil119" d="M914 100h7v296h-7z"/><path id="200" fill="#a0c527" fill-rule="nonzero" d="M918 100h7v296h-7z"/><path id="201" fill="#9fc428" fill-rule="nonzero" d="M923 100h6v296h-6z"/><path id="202" fill="#9ec428" fill-rule="nonzero" d="M927 100h7v296h-7z"/><path id="203" fill="#9cc428" fill-rule="nonzero" d="M932 100h6v296h-6z"/><path id="204" fill="#9bc329" fill-rule="nonzero" d="M936 100h7v296h-7z"/><path id="205" fill="#9ac329" fill-rule="nonzero" d="M940 100h7v296h-7z"/><path id="206" fill="#99c329" fill-rule="nonzero" d="M945 100h6v296h-6z"/><path id="207" fill="#98c22a" fill-rule="nonzero" d="M949 100h7v296h-7z"/><path id="208" fill="#97c22a" fill-rule="nonzero" d="M954 100h6v296h-6z"/><path id="209" fill="#96c22b" fill-rule="nonzero" d="M958 100h7v296h-7z"/><path id="210" fill="#95c12b" fill-rule="nonzero" d="M962 100h7v296h-7z"/><path id="211" fill="#94c12b" fill-rule="nonzero" d="M967 100h6v296h-6z"/><path id="212" fill="#93c02c" fill-rule="nonzero" d="M971 100h7v296h-7z"/><path id="213" fill="#92c02c" fill-rule="nonzero" d="M975 100h7v296h-7z"/><path id="214" fill="#91c02c" fill-rule="nonzero" d="M980 100h6v296h-6z"/><path id="215" fill="#90bf2d" fill-rule="nonzero" d="M984 100h7v296h-7z"/><path id="216" fill="#8fbf2d" fill-rule="nonzero" d="M989 100h6v296h-6z"/><path id="217" fill="#8dbf2d" fill-rule="nonzero" d="M993 100h7v296h-7z"/><path id="218" fill="#8cbe2e" fill-rule="nonzero" d="M997 100h7v296h-7z"/><path id="219" fill="#8bbe2e" fill-rule="nonzero" d="M1002 100h6v296h-6z"/><path id="220" fill="#8abe2e" fill-rule="nonzero" d="M1006 100h7v296h-7z"/><path id="221" fill="#89bd2f" fill-rule="nonzero" d="M1011 100h6v296h-6z"/><path id="222" fill="#88bd2f" fill-rule="nonzero" d="M1015 100h7v296h-7z"/><path id="223" fill="#86bd2f" fill-rule="nonzero" d="M1019 100h7v296h-7z"/><path id="224" fill="#85bc30" fill-rule="nonzero" d="M1024 100h6v296h-6z"/><path id="225" fill="#84bc30" fill-rule="nonzero" d="M1028 100h7v296h-7z"/><path id="226" fill="#83bb30" fill-rule="nonzero" d="M1033 100h6v296h-6z"/><path id="227" fill="#82bb31" fill-rule="nonzero" d="M1037 100h7v296h-7z"/><path id="228" fill="#81bb31" fill-rule="nonzero" d="M1041 100h7v296h-7z"/><path id="229" fill="#7fba31" fill-rule="nonzero" d="M1046 100h6v296h-6z"/><path id="230" fill="#7eba32" fill-rule="nonzero" d="M1050 100h7v296h-7z"/><path id="231" fill="#7dba32" fill-rule="nonzero" d="M1055 100h6v296h-6z"/><path id="232" fill="#7cb932" fill-rule="nonzero" d="M1059 100h7v296h-7z"/><path id="233" fill="#7bb933" fill-rule="nonzero" d="M1063 100h7v296h-7z"/><path id="234" fill="#7ab933" fill-rule="nonzero" d="M1068 100h6v296h-6z"/><path id="235" fill="#78b833" fill-rule="nonzero" d="M1072 100h7v296h-7z"/><path id="236" fill="#77b833" fill-rule="nonzero" d="M1077 100h6v296h-6z"/><path id="237" fill="#76b834" fill-rule="nonzero" d="M1081 100h7v296h-7z"/><path id="238" fill="#74b734" fill-rule="nonzero" d="M1085 100h7v296h-7z"/><path id="239" fill="#73b734" fill-rule="nonzero" d="M1090 100h6v296h-6z"/><path id="240" fill="#72b635" fill-rule="nonzero" d="M1094 100h7v296h-7z"/><path id="241" fill="#70b635" fill-rule="nonzero" d="M1099 100h6v296h-6z"/><path id="242" fill="#6fb635" fill-rule="nonzero" d="M1103 100h7v296h-7z"/><path id="243" fill="#6eb535" fill-rule="nonzero" d="M1107 100h7v296h-7z"/><path id="244" fill="#6cb536" fill-rule="nonzero" d="M1112 100h6v296h-6z"/><path id="245" fill="#6bb536" fill-rule="nonzero" d="M1116 100h7v296h-7z"/><path id="246" fill="#6ab436" fill-rule="nonzero" d="M1121 100h6v296h-6z"/><path id="247" fill="#68b436" fill-rule="nonzero" d="M1125 100h7v296h-7z"/><path id="248" fill="#67b437" fill-rule="nonzero" d="M1129 100h7v296h-7z"/><path id="249" fill="#66b337" fill-rule="nonzero" d="M1134 100h6v296h-6z"/><path id="250" fill="#65b337" fill-rule="nonzero" d="M1138 100h7v296h-7z"/><path id="251" fill="#63b338" fill-rule="nonzero" d="M1142 100h7v296h-7z"/><path id="252" fill="#62b238" fill-rule="nonzero" d="M1147 100h6v296h-6z"/><path id="253" fill="#60b238" fill-rule="nonzero" d="M1151 100h7v296h-7z"/><path id="254" fill="#5fb138" fill-rule="nonzero" d="M1156 100h6v296h-6z"/><path id="255" fill="#22f029" fill-rule="nonzero" d="M1160 100h9v296h-9z"/></g><path d="M569 153c10 0 22 2 38 7 2 1 3 1 4 1s4-1 8-3c2-1 3-1 5-1 6 0 13 5 20 15s10 19 10 28c0 5-2 10-5 13-3 4-7 5-11 5s-7-1-9-2c-2-2-7-6-15-13-11-10-22-16-33-16-5 0-9 1-13 4-3 3-5 6-5 10 0 8 7 14 21 18 19 6 32 10 37 12 24 12 36 29 36 51 0 20-8 36-24 49-17 13-38 19-65 19-12 0-25-1-38-4s-23-6-29-10c-4-3-8-9-12-19s-5-20-5-29c0-5 1-8 3-10 2-3 5-4 9-4s7 2 10 5c2 2 7 9 14 20 3 5 9 10 16 13 8 3 15 5 23 5 7 0 13-1 17-4s6-6 6-10-2-7-5-10-9-5-16-8c-13-4-23-8-30-12-7-3-14-8-20-13-15-13-22-28-22-44 0-4 1-8 2-12l-13-11-5-5-11-9c-4-3-7-6-10-10-2-2-3-3-6-5l-88-80c-10-10-26-19-26-33 0-10 6-17 11-22 8-9 11-13 24-13 11 0 26 18 34 26l123 122c13-7 28-11 45-11zM366 37c7 0 13 6 13 13s-6 13-13 13-13-6-13-13 6-13 13-13z" fill="url(#id1)" fill-rule="nonzero"/></g></svg>