<svg xmlns="http://www.w3.org/2000/svg" id="Capa_1" x="0" y="0" viewBox="0 0 496 496" xml:space="preserve"><style>.st0{fill:#2e2f31}</style><path class="st0" d="M205.8 400h-43.5l-4.1-12.4c-3.2-1.1-6.3-2.4-9.3-3.8l-11.6 5.8-26.7-26.7 11.3-11.3 18.5 18.5 8.8-4.4 3.7 2.1c4.3 2.4 8.9 4.3 13.8 5.7l4.1 1.2 3.1 9.3h20.5l3.1-9.3 4.1-1.2c4.9-1.4 9.5-3.3 13.8-5.7l3.7-2.1 8.8 4.4 14.5-14.5-4.4-8.8 2.1-3.7c2.4-4.3 4.3-8.9 5.7-13.8l1.2-4.1 9.3-3.1v-20.5l-9.3-3.1-1.2-4.1c-1.4-4.9-3.3-9.5-5.7-13.8l14-7.8c2.3 4.2 4.3 8.6 5.8 13.2l12.4 4.1v43.5l-12.4 4.1c-1.1 3.2-2.4 6.3-3.8 9.3l5.8 11.6-30.8 30.8-11.6-5.8c-3 1.5-6.1 2.8-9.3 3.8l-4.4 12.6zm-91.6-49c-2.3-4.2-4.3-8.6-5.8-13.2l-12.4-4v-43.5l12.4-4.1c1.1-3.2 2.4-6.3 3.8-9.3l-5.8-11.6 30.8-30.8 11.6 5.8c3-1.5 6.1-2.8 9.3-3.8l4.1-12.4h43.5l4.1 12.4c3.2 1.1 6.3 2.4 9.3 3.8l11.6-5.8 26.7 26.7-11.3 11.3-18.5-18.5-8.8 4.4-3.7-2.1c-4.3-2.4-8.9-4.3-13.8-5.7l-4.1-1.2-3.1-9.3h-20.5l-3.1 9.3-4.1 1.2c-4.9 1.4-9.5 3.3-13.8 5.7l-3.7 2.1-8.8-4.4-14.5 14.5 4.4 8.8-2.1 3.7c-2.4 4.3-4.3 8.9-5.7 13.8l-1.2 4.1-9.3 3.1v20.5l9.3 3.1 1.2 4.1c1.4 4.9 3.3 9.5 5.7 13.8l-13.7 7.5z"/><path d="M280 8h208v48H280zm0 80h208v48H280zm0 80h208v48H280z" fill="#fcd830"/><path class="st0" d="M256 432h96v24c0 13.2-10.8 24-24 24H40c-13.2 0-24-10.8-24-24v-24h96v-16H0v40c0 22.1 17.9 40 40 40h288c22.1 0 40-17.9 40-40v-40H256v16z"/><path class="st0" d="M128 440c0 13.2 10.8 24 24 24h64c13.2 0 24-10.8 24-24v-24H128v24zm16-8h80v8c0 4.4-3.6 8-8 8h-64c-4.4 0-8-3.6-8-8v-8zm-96 16h16v16H48zm32 0h16v16H80zm256-208h16v160h-16zM32 200c0-13.2 10.8-24 24-24h200v-16H56c-22.1 0-40 17.9-40 40v200h16V200zm272 40h16v160h-16z"/><path class="st0" d="M256 192H64c-8.8 0-16 7.2-16 16v192h16V208h192v-16z"/><path class="st0" d="M232 312c0-26.5-21.5-48-48-48s-48 21.5-48 48 21.5 48 48 48 48-21.5 48-48zm-80 0c0-17.6 14.4-32 32-32s32 14.4 32 32-14.4 32-32 32-32-14.4-32-32zM496 64V0H272v64h24v16h-24v64h24v16h-24v64h224v-64h-24v-16h24V80h-24V64h24zM288 16h192v32H288V16zm192 192H288v-32h192v32zm-24-48H312v-16h144v16zm24-32H288V96h192v32zm-24-48H312V64h144v16zm24 256c0 13.2-10.8 24-24 24h-48v16h48c22.1 0 40-17.9 40-40v-80h-16v80z"/><path class="st0" d="M464 288v-32h-16v32c0 4.4-3.6 8-8 8h-32v16h32c13.2 0 24-10.8 24-24zM144 56c0-13.2 10.8-24 24-24h48V16h-48c-22.1 0-40 17.9-40 40v80h16V56z"/><path class="st0" d="M160 104v32h16v-32c0-4.4 3.6-8 8-8h32V80h-32c-13.2 0-24 10.8-24 24z"/><path class="st0" d="M392 392c-13.2 0-24-10.8-24-24s10.8-24 24-24 24 10.8 24 24-10.8 24-24 24zm0-32c-4.4 0-8 3.6-8 8s3.6 8 8 8 8-3.6 8-8-3.6-8-8-8zm0-32c-13.2 0-24-10.8-24-24s10.8-24 24-24 24 10.8 24 24-10.8 24-24 24zm0-32c-4.4 0-8 3.6-8 8s3.6 8 8 8 8-3.6 8-8-3.6-8-8-8zM232 48c-13.2 0-24-10.8-24-24s10.8-24 24-24 24 10.8 24 24-10.8 24-24 24zm0-32c-4.4 0-8 3.6-8 8s3.6 8 8 8 8-3.6 8-8-3.6-8-8-8zm0 96c-13.2 0-24-10.8-24-24s10.8-24 24-24 24 10.8 24 24-10.8 24-24 24zm0-32c-4.4 0-8 3.6-8 8s3.6 8 8 8 8-3.6 8-8-3.6-8-8-8z"/></svg>